# xmcd
#
# Track frame offsets:
#	150
#	27615
#	43175
#	70567
#	108713
#	124205
#	150135
#	175368
#	196778
#
# Disc length: 3147 seconds
# Revision: 0
# Processed by: cddbd v1.5.2PL0 Copyright (c) Steve Scherf et al.
# Submitted via: dBpowerAMP V12.0
#
DISCID=750c4909
DTITLE=Tommy Z - Blizzard Of Blues
DYEAR=2015
DGENRE=Blues
TTITLE0=Lovergirl
TTITLE1=Going To A Party
TTITLE2=Memory Of Love
TTITLE3=Blues For KP 
TTITLE4=Bags Of Cool
TTITLE5=Blizzard Of Blues
TTITLE6=Miracle
TTITLE7=My Eyes Keep Me In Trouble
TTITLE8=Al's Groove
EXTD=
EXTT0=
EXTT1=
EXTT2=
EXTT3=
EXTT4=
EXTT5=
EXTT6=
EXTT7=
EXTT8=
PLAYORDER=
